<svg xmlns="http://www.w3.org/2000/svg" width="1200" height="630" viewBox="0 0 1200 630" shape-rendering="crispEdges">
  <rect width="1200" height="630" fill="#09090b"/>
  <rect x="990" y="0" width="9" height="9" fill="#ff6b35" opacity="0.32"/><rect x="1035" y="0" width="9" height="9" fill="#ff6b35" opacity="0.47"/><rect x="1065" y="0" width="9" height="9" fill="#ff6b35" opacity="0.27"/><rect x="1095" y="0" width="9" height="9" fill="#ff6b35" opacity="0.16"/><rect x="1125" y="0" width="9" height="9" fill="#ff6b35" opacity="0.35"/><rect x="1170" y="0" width="9" height="9" fill="#ff6b35" opacity="0.54"/><rect x="1020" y="15" width="9" height="9" fill="#ff6b35" opacity="0.36"/><rect x="1080" y="15" width="9" height="9" fill="#ff6b35" opacity="0.22"/><rect x="1095" y="15" width="9" height="9" fill="#ff6b35" opacity="0.41"/><rect x="1110" y="15" width="9" height="9" fill="#ff6b35" opacity="0.34"/><rect x="1125" y="15" width="9" height="9" fill="#ff6b35" opacity="0.49"/><rect x="1155" y="15" width="9" height="9" fill="#ff6b35" opacity="0.39"/><rect x="1170" y="15" width="9" height="9" fill="#ff6b35" opacity="0.48"/><rect x="1185" y="15" width="9" height="9" fill="#ff6b35" opacity="0.17"/><rect x="945" y="30" width="9" height="9" fill="#ff6b35" opacity="0.39"/><rect x="1005" y="30" width="9" height="9" fill="#ff6b35" opacity="0.33"/><rect x="1155" y="30" width="9" height="9" fill="#ff6b35" opacity="0.19"/><rect x="990" y="45" width="9" height="9" fill="#ff6b35" opacity="0.40"/><rect x="1020" y="45" width="9" height="9" fill="#ff6b35" opacity="0.60"/><rect x="1110" y="45" width="9" height="9" fill="#ff6b35" opacity="0.23"/><rect x="1125" y="45" width="9" height="9" fill="#ff6b35" opacity="0.40"/><rect x="1140" y="45" width="9" height="9" fill="#ff6b35" opacity="0.59"/><rect x="1170" y="45" width="9" height="9" fill="#ff6b35" opacity="0.35"/><rect x="1185" y="45" width="9" height="9" fill="#ff6b35" opacity="0.48"/><rect x="945" y="60" width="9" height="9" fill="#ff6b35" opacity="0.49"/><rect x="1020" y="60" width="9" height="9" fill="#ff6b35" opacity="0.29"/><rect x="1080" y="60" width="9" height="9" fill="#ff6b35" opacity="0.43"/><rect x="1110" y="60" width="9" height="9" fill="#ff6b35" opacity="0.37"/><rect x="1140" y="60" width="9" height="9" fill="#ff6b35" opacity="0.39"/><rect x="1170" y="60" width="9" height="9" fill="#ff6b35" opacity="0.46"/><rect x="1185" y="60" width="9" height="9" fill="#ff6b35" opacity="0.55"/><rect x="1050" y="75" width="9" height="9" fill="#ff6b35" opacity="0.33"/><rect x="1065" y="75" width="9" height="9" fill="#ff6b35" opacity="0.53"/><rect x="1095" y="75" width="9" height="9" fill="#ff6b35" opacity="0.37"/><rect x="1125" y="75" width="9" height="9" fill="#ff6b35" opacity="0.38"/><rect x="1170" y="75" width="9" height="9" fill="#ff6b35" opacity="0.42"/><rect x="1185" y="75" width="9" height="9" fill="#ff6b35" opacity="0.18"/><rect x="990" y="90" width="9" height="9" fill="#ff6b35" opacity="0.36"/><rect x="1020" y="90" width="9" height="9" fill="#ff6b35" opacity="0.21"/><rect x="1065" y="90" width="9" height="9" fill="#ff6b35" opacity="0.58"/><rect x="1155" y="90" width="9" height="9" fill="#ff6b35" opacity="0.55"/><rect x="930" y="105" width="9" height="9" fill="#ff6b35" opacity="0.16"/><rect x="960" y="105" width="9" height="9" fill="#ff6b35" opacity="0.52"/><rect x="1020" y="105" width="9" height="9" fill="#ff6b35" opacity="0.17"/><rect x="1050" y="105" width="9" height="9" fill="#ff6b35" opacity="0.46"/><rect x="1095" y="105" width="9" height="9" fill="#ff6b35" opacity="0.41"/><rect x="1110" y="105" width="9" height="9" fill="#ff6b35" opacity="0.25"/><rect x="1170" y="105" width="9" height="9" fill="#ff6b35" opacity="0.25"/><rect x="1185" y="105" width="9" height="9" fill="#ff6b35" opacity="0.48"/><rect x="960" y="120" width="9" height="9" fill="#ff6b35" opacity="0.47"/><rect x="990" y="120" width="9" height="9" fill="#ff6b35" opacity="0.46"/><rect x="1020" y="120" width="9" height="9" fill="#ff6b35" opacity="0.59"/><rect x="1095" y="120" width="9" height="9" fill="#ff6b35" opacity="0.18"/><rect x="1125" y="120" width="9" height="9" fill="#ff6b35" opacity="0.20"/><rect x="1155" y="120" width="9" height="9" fill="#ff6b35" opacity="0.35"/><rect x="1170" y="120" width="9" height="9" fill="#ff6b35" opacity="0.48"/><rect x="1185" y="120" width="9" height="9" fill="#ff6b35" opacity="0.48"/><rect x="1020" y="135" width="9" height="9" fill="#ff6b35" opacity="0.49"/><rect x="1050" y="135" width="9" height="9" fill="#ff6b35" opacity="0.45"/><rect x="1065" y="135" width="9" height="9" fill="#ff6b35" opacity="0.59"/><rect x="1110" y="135" width="9" height="9" fill="#ff6b35" opacity="0.25"/><rect x="1140" y="135" width="9" height="9" fill="#ff6b35" opacity="0.23"/><rect x="1170" y="135" width="9" height="9" fill="#ff6b35" opacity="0.22"/><rect x="1185" y="135" width="9" height="9" fill="#ff6b35" opacity="0.35"/><rect x="915" y="150" width="9" height="9" fill="#ff6b35" opacity="0.29"/><rect x="1005" y="150" width="9" height="9" fill="#ff6b35" opacity="0.20"/><rect x="1035" y="150" width="9" height="9" fill="#ff6b35" opacity="0.22"/><rect x="1050" y="150" width="9" height="9" fill="#ff6b35" opacity="0.57"/><rect x="1065" y="150" width="9" height="9" fill="#ff6b35" opacity="0.30"/><rect x="1110" y="150" width="9" height="9" fill="#ff6b35" opacity="0.34"/><rect x="1125" y="150" width="9" height="9" fill="#ff6b35" opacity="0.34"/><rect x="1140" y="150" width="9" height="9" fill="#ff6b35" opacity="0.20"/><rect x="1155" y="150" width="9" height="9" fill="#ff6b35" opacity="0.16"/><rect x="1185" y="150" width="9" height="9" fill="#ff6b35" opacity="0.46"/><rect x="1035" y="165" width="9" height="9" fill="#ff6b35" opacity="0.41"/><rect x="1065" y="165" width="9" height="9" fill="#ff6b35" opacity="0.26"/><rect x="1095" y="165" width="9" height="9" fill="#ff6b35" opacity="0.33"/><rect x="1110" y="165" width="9" height="9" fill="#ff6b35" opacity="0.40"/><rect x="1140" y="165" width="9" height="9" fill="#ff6b35" opacity="0.56"/><rect x="1155" y="165" width="9" height="9" fill="#ff6b35" opacity="0.52"/><rect x="1170" y="165" width="9" height="9" fill="#ff6b35" opacity="0.50"/><rect x="1050" y="180" width="9" height="9" fill="#ff6b35" opacity="0.52"/><rect x="1110" y="180" width="9" height="9" fill="#ff6b35" opacity="0.54"/><rect x="1125" y="180" width="9" height="9" fill="#ff6b35" opacity="0.32"/><rect x="1155" y="180" width="9" height="9" fill="#ff6b35" opacity="0.26"/><rect x="1170" y="180" width="9" height="9" fill="#ff6b35" opacity="0.49"/><rect x="1185" y="180" width="9" height="9" fill="#ff6b35" opacity="0.30"/><rect x="990" y="195" width="9" height="9" fill="#ff6b35" opacity="0.47"/><rect x="1050" y="195" width="9" height="9" fill="#ff6b35" opacity="0.58"/><rect x="1065" y="195" width="9" height="9" fill="#ff6b35" opacity="0.21"/><rect x="1095" y="195" width="9" height="9" fill="#ff6b35" opacity="0.52"/><rect x="1125" y="195" width="9" height="9" fill="#ff6b35" opacity="0.23"/><rect x="1170" y="195" width="9" height="9" fill="#ff6b35" opacity="0.25"/><rect x="1065" y="210" width="9" height="9" fill="#ff6b35" opacity="0.57"/><rect x="1095" y="210" width="9" height="9" fill="#ff6b35" opacity="0.43"/><rect x="1110" y="210" width="9" height="9" fill="#ff6b35" opacity="0.28"/><rect x="1140" y="210" width="9" height="9" fill="#ff6b35" opacity="0.18"/><rect x="1155" y="210" width="9" height="9" fill="#ff6b35" opacity="0.39"/><rect x="1170" y="210" width="9" height="9" fill="#ff6b35" opacity="0.20"/><rect x="990" y="225" width="9" height="9" fill="#ff6b35" opacity="0.21"/><rect x="1020" y="225" width="9" height="9" fill="#ff6b35" opacity="0.38"/><rect x="1050" y="225" width="9" height="9" fill="#ff6b35" opacity="0.51"/><rect x="1065" y="225" width="9" height="9" fill="#ff6b35" opacity="0.24"/><rect x="1095" y="225" width="9" height="9" fill="#ff6b35" opacity="0.28"/><rect x="1140" y="225" width="9" height="9" fill="#ff6b35" opacity="0.21"/><rect x="1170" y="225" width="9" height="9" fill="#ff6b35" opacity="0.32"/><rect x="1185" y="225" width="9" height="9" fill="#ff6b35" opacity="0.39"/><rect x="1065" y="240" width="9" height="9" fill="#ff6b35" opacity="0.41"/><rect x="1080" y="240" width="9" height="9" fill="#ff6b35" opacity="0.36"/><rect x="1095" y="240" width="9" height="9" fill="#ff6b35" opacity="0.35"/><rect x="1110" y="240" width="9" height="9" fill="#ff6b35" opacity="0.45"/><rect x="1125" y="240" width="9" height="9" fill="#ff6b35" opacity="0.38"/><rect x="1140" y="240" width="9" height="9" fill="#ff6b35" opacity="0.58"/><rect x="1155" y="240" width="9" height="9" fill="#ff6b35" opacity="0.32"/><rect x="1170" y="240" width="9" height="9" fill="#ff6b35" opacity="0.19"/><rect x="1185" y="240" width="9" height="9" fill="#ff6b35" opacity="0.29"/><rect x="930" y="255" width="9" height="9" fill="#ff6b35" opacity="0.17"/><rect x="1035" y="255" width="9" height="9" fill="#ff6b35" opacity="0.32"/><rect x="1065" y="255" width="9" height="9" fill="#ff6b35" opacity="0.35"/><rect x="1095" y="255" width="9" height="9" fill="#ff6b35" opacity="0.26"/><rect x="1110" y="255" width="9" height="9" fill="#ff6b35" opacity="0.18"/><rect x="1140" y="255" width="9" height="9" fill="#ff6b35" opacity="0.56"/><rect x="1155" y="255" width="9" height="9" fill="#ff6b35" opacity="0.51"/><rect x="1185" y="255" width="9" height="9" fill="#ff6b35" opacity="0.33"/><rect x="1020" y="270" width="9" height="9" fill="#ff6b35" opacity="0.17"/><rect x="1065" y="270" width="9" height="9" fill="#ff6b35" opacity="0.49"/><rect x="1125" y="270" width="9" height="9" fill="#ff6b35" opacity="0.40"/><rect x="1140" y="270" width="9" height="9" fill="#ff6b35" opacity="0.29"/><rect x="1155" y="270" width="9" height="9" fill="#ff6b35" opacity="0.27"/><rect x="1185" y="270" width="9" height="9" fill="#ff6b35" opacity="0.25"/><rect x="1020" y="285" width="9" height="9" fill="#ff6b35" opacity="0.53"/><rect x="1080" y="285" width="9" height="9" fill="#ff6b35" opacity="0.21"/><rect x="1125" y="285" width="9" height="9" fill="#ff6b35" opacity="0.46"/><rect x="1140" y="285" width="9" height="9" fill="#ff6b35" opacity="0.39"/><rect x="1155" y="285" width="9" height="9" fill="#ff6b35" opacity="0.44"/><rect x="1185" y="285" width="9" height="9" fill="#ff6b35" opacity="0.30"/><rect x="915" y="300" width="9" height="9" fill="#ff6b35" opacity="0.45"/><rect x="990" y="300" width="9" height="9" fill="#ff6b35" opacity="0.47"/><rect x="1080" y="300" width="9" height="9" fill="#ff6b35" opacity="0.25"/><rect x="1095" y="300" width="9" height="9" fill="#ff6b35" opacity="0.31"/><rect x="1170" y="300" width="9" height="9" fill="#ff6b35" opacity="0.45"/><rect x="1020" y="315" width="9" height="9" fill="#ff6b35" opacity="0.45"/><rect x="1080" y="315" width="9" height="9" fill="#ff6b35" opacity="0.22"/><rect x="1095" y="315" width="9" height="9" fill="#ff6b35" opacity="0.44"/><rect x="1110" y="315" width="9" height="9" fill="#ff6b35" opacity="0.22"/><rect x="1140" y="315" width="9" height="9" fill="#ff6b35" opacity="0.43"/><rect x="1155" y="315" width="9" height="9" fill="#ff6b35" opacity="0.52"/><rect x="1170" y="315" width="9" height="9" fill="#ff6b35" opacity="0.48"/><rect x="960" y="330" width="9" height="9" fill="#ff6b35" opacity="0.29"/><rect x="990" y="330" width="9" height="9" fill="#ff6b35" opacity="0.26"/><rect x="1065" y="330" width="9" height="9" fill="#ff6b35" opacity="0.27"/><rect x="1095" y="330" width="9" height="9" fill="#ff6b35" opacity="0.23"/><rect x="1140" y="330" width="9" height="9" fill="#ff6b35" opacity="0.16"/><rect x="1155" y="330" width="9" height="9" fill="#ff6b35" opacity="0.58"/><rect x="1170" y="330" width="9" height="9" fill="#ff6b35" opacity="0.57"/><rect x="1080" y="345" width="9" height="9" fill="#ff6b35" opacity="0.16"/><rect x="1125" y="345" width="9" height="9" fill="#ff6b35" opacity="0.26"/><rect x="1170" y="345" width="9" height="9" fill="#ff6b35" opacity="0.43"/><rect x="990" y="360" width="9" height="9" fill="#ff6b35" opacity="0.41"/><rect x="1035" y="360" width="9" height="9" fill="#ff6b35" opacity="0.58"/><rect x="1065" y="360" width="9" height="9" fill="#ff6b35" opacity="0.32"/><rect x="1080" y="360" width="9" height="9" fill="#ff6b35" opacity="0.38"/><rect x="1140" y="360" width="9" height="9" fill="#ff6b35" opacity="0.45"/><rect x="1170" y="360" width="9" height="9" fill="#ff6b35" opacity="0.43"/><rect x="1185" y="360" width="9" height="9" fill="#ff6b35" opacity="0.46"/><rect x="1050" y="375" width="9" height="9" fill="#ff6b35" opacity="0.23"/><rect x="1140" y="375" width="9" height="9" fill="#ff6b35" opacity="0.43"/><rect x="1185" y="375" width="9" height="9" fill="#ff6b35" opacity="0.51"/><rect x="1020" y="390" width="9" height="9" fill="#ff6b35" opacity="0.55"/><rect x="1035" y="390" width="9" height="9" fill="#ff6b35" opacity="0.25"/><rect x="1110" y="390" width="9" height="9" fill="#ff6b35" opacity="0.27"/><rect x="1155" y="390" width="9" height="9" fill="#ff6b35" opacity="0.31"/><rect x="1110" y="405" width="9" height="9" fill="#ff6b35" opacity="0.46"/><rect x="1140" y="405" width="9" height="9" fill="#ff6b35" opacity="0.23"/><rect x="1155" y="405" width="9" height="9" fill="#ff6b35" opacity="0.33"/><rect x="1185" y="405" width="9" height="9" fill="#ff6b35" opacity="0.39"/><rect x="1020" y="420" width="9" height="9" fill="#ff6b35" opacity="0.55"/><rect x="1095" y="420" width="9" height="9" fill="#ff6b35" opacity="0.42"/><rect x="1125" y="420" width="9" height="9" fill="#ff6b35" opacity="0.51"/><rect x="1170" y="420" width="9" height="9" fill="#ff6b35" opacity="0.24"/><rect x="930" y="435" width="9" height="9" fill="#ff6b35" opacity="0.50"/><rect x="945" y="435" width="9" height="9" fill="#ff6b35" opacity="0.29"/><rect x="960" y="435" width="9" height="9" fill="#ff6b35" opacity="0.42"/><rect x="1005" y="435" width="9" height="9" fill="#ff6b35" opacity="0.18"/><rect x="1125" y="435" width="9" height="9" fill="#ff6b35" opacity="0.18"/><rect x="1140" y="435" width="9" height="9" fill="#ff6b35" opacity="0.47"/><rect x="1170" y="435" width="9" height="9" fill="#ff6b35" opacity="0.18"/><rect x="1185" y="435" width="9" height="9" fill="#ff6b35" opacity="0.35"/><rect x="930" y="450" width="9" height="9" fill="#ff6b35" opacity="0.38"/><rect x="1035" y="450" width="9" height="9" fill="#ff6b35" opacity="0.34"/><rect x="1065" y="450" width="9" height="9" fill="#ff6b35" opacity="0.27"/><rect x="1125" y="450" width="9" height="9" fill="#ff6b35" opacity="0.32"/><rect x="1140" y="450" width="9" height="9" fill="#ff6b35" opacity="0.24"/><rect x="1170" y="450" width="9" height="9" fill="#ff6b35" opacity="0.18"/><rect x="1185" y="450" width="9" height="9" fill="#ff6b35" opacity="0.48"/><rect x="1005" y="465" width="9" height="9" fill="#ff6b35" opacity="0.16"/><rect x="1050" y="465" width="9" height="9" fill="#ff6b35" opacity="0.24"/><rect x="1095" y="465" width="9" height="9" fill="#ff6b35" opacity="0.43"/><rect x="1125" y="465" width="9" height="9" fill="#ff6b35" opacity="0.30"/><rect x="1140" y="465" width="9" height="9" fill="#ff6b35" opacity="0.42"/><rect x="1155" y="465" width="9" height="9" fill="#ff6b35" opacity="0.33"/><rect x="1185" y="465" width="9" height="9" fill="#ff6b35" opacity="0.60"/><rect x="990" y="480" width="9" height="9" fill="#ff6b35" opacity="0.26"/><rect x="1080" y="480" width="9" height="9" fill="#ff6b35" opacity="0.52"/><rect x="1095" y="480" width="9" height="9" fill="#ff6b35" opacity="0.43"/><rect x="1110" y="480" width="9" height="9" fill="#ff6b35" opacity="0.25"/><rect x="1125" y="480" width="9" height="9" fill="#ff6b35" opacity="0.46"/><rect x="1155" y="480" width="9" height="9" fill="#ff6b35" opacity="0.47"/><rect x="1170" y="480" width="9" height="9" fill="#ff6b35" opacity="0.31"/><rect x="1185" y="480" width="9" height="9" fill="#ff6b35" opacity="0.46"/><rect x="960" y="495" width="9" height="9" fill="#ff6b35" opacity="0.46"/><rect x="1035" y="495" width="9" height="9" fill="#ff6b35" opacity="0.48"/><rect x="1110" y="495" width="9" height="9" fill="#ff6b35" opacity="0.51"/><rect x="1125" y="495" width="9" height="9" fill="#ff6b35" opacity="0.32"/><rect x="1155" y="495" width="9" height="9" fill="#ff6b35" opacity="0.57"/><rect x="1170" y="495" width="9" height="9" fill="#ff6b35" opacity="0.50"/><rect x="1185" y="495" width="9" height="9" fill="#ff6b35" opacity="0.43"/><rect x="960" y="510" width="9" height="9" fill="#ff6b35" opacity="0.30"/><rect x="1035" y="510" width="9" height="9" fill="#ff6b35" opacity="0.27"/><rect x="1080" y="510" width="9" height="9" fill="#ff6b35" opacity="0.18"/><rect x="1125" y="510" width="9" height="9" fill="#ff6b35" opacity="0.20"/><rect x="1140" y="510" width="9" height="9" fill="#ff6b35" opacity="0.45"/><rect x="1155" y="510" width="9" height="9" fill="#ff6b35" opacity="0.57"/><rect x="1170" y="510" width="9" height="9" fill="#ff6b35" opacity="0.33"/><rect x="1185" y="510" width="9" height="9" fill="#ff6b35" opacity="0.34"/><rect x="1035" y="525" width="9" height="9" fill="#ff6b35" opacity="0.34"/><rect x="1065" y="525" width="9" height="9" fill="#ff6b35" opacity="0.37"/><rect x="1110" y="525" width="9" height="9" fill="#ff6b35" opacity="0.28"/><rect x="1140" y="525" width="9" height="9" fill="#ff6b35" opacity="0.16"/><rect x="1155" y="525" width="9" height="9" fill="#ff6b35" opacity="0.31"/><rect x="1170" y="525" width="9" height="9" fill="#ff6b35" opacity="0.44"/><rect x="1185" y="525" width="9" height="9" fill="#ff6b35" opacity="0.31"/><rect x="1065" y="540" width="9" height="9" fill="#ff6b35" opacity="0.52"/><rect x="1080" y="540" width="9" height="9" fill="#ff6b35" opacity="0.43"/><rect x="1140" y="540" width="9" height="9" fill="#ff6b35" opacity="0.40"/><rect x="1155" y="540" width="9" height="9" fill="#ff6b35" opacity="0.48"/><rect x="1170" y="540" width="9" height="9" fill="#ff6b35" opacity="0.19"/><rect x="1185" y="540" width="9" height="9" fill="#ff6b35" opacity="0.54"/><rect x="1050" y="555" width="9" height="9" fill="#ff6b35" opacity="0.21"/><rect x="1065" y="555" width="9" height="9" fill="#ff6b35" opacity="0.48"/><rect x="1095" y="555" width="9" height="9" fill="#ff6b35" opacity="0.35"/><rect x="1110" y="555" width="9" height="9" fill="#ff6b35" opacity="0.53"/><rect x="1140" y="555" width="9" height="9" fill="#ff6b35" opacity="0.47"/><rect x="1155" y="555" width="9" height="9" fill="#ff6b35" opacity="0.30"/><rect x="1170" y="555" width="9" height="9" fill="#ff6b35" opacity="0.28"/><rect x="1080" y="570" width="9" height="9" fill="#ff6b35" opacity="0.46"/><rect x="1110" y="570" width="9" height="9" fill="#ff6b35" opacity="0.52"/><rect x="1185" y="570" width="9" height="9" fill="#ff6b35" opacity="0.20"/><rect x="1035" y="585" width="9" height="9" fill="#ff6b35" opacity="0.27"/><rect x="1080" y="585" width="9" height="9" fill="#ff6b35" opacity="0.30"/><rect x="1095" y="585" width="9" height="9" fill="#ff6b35" opacity="0.38"/><rect x="1110" y="585" width="9" height="9" fill="#ff6b35" opacity="0.34"/><rect x="1125" y="585" width="9" height="9" fill="#ff6b35" opacity="0.48"/><rect x="1140" y="585" width="9" height="9" fill="#ff6b35" opacity="0.15"/><rect x="1155" y="585" width="9" height="9" fill="#ff6b35" opacity="0.26"/><rect x="1170" y="585" width="9" height="9" fill="#ff6b35" opacity="0.52"/><rect x="1185" y="585" width="9" height="9" fill="#ff6b35" opacity="0.21"/><rect x="960" y="600" width="9" height="9" fill="#ff6b35" opacity="0.51"/><rect x="1005" y="600" width="9" height="9" fill="#ff6b35" opacity="0.48"/><rect x="1050" y="600" width="9" height="9" fill="#ff6b35" opacity="0.53"/><rect x="1065" y="600" width="9" height="9" fill="#ff6b35" opacity="0.16"/><rect x="1080" y="600" width="9" height="9" fill="#ff6b35" opacity="0.48"/><rect x="1095" y="600" width="9" height="9" fill="#ff6b35" opacity="0.35"/><rect x="1125" y="600" width="9" height="9" fill="#ff6b35" opacity="0.26"/><rect x="1155" y="600" width="9" height="9" fill="#ff6b35" opacity="0.45"/><rect x="1170" y="600" width="9" height="9" fill="#ff6b35" opacity="0.20"/><rect x="1185" y="600" width="9" height="9" fill="#ff6b35" opacity="0.38"/><rect x="1020" y="615" width="9" height="9" fill="#ff6b35" opacity="0.37"/><rect x="1050" y="615" width="9" height="9" fill="#ff6b35" opacity="0.30"/><rect x="1080" y="615" width="9" height="9" fill="#ff6b35" opacity="0.31"/><rect x="1125" y="615" width="9" height="9" fill="#ff6b35" opacity="0.28"/><rect x="1170" y="615" width="9" height="9" fill="#ff6b35" opacity="0.42"/><rect x="1185" y="615" width="9" height="9" fill="#ff6b35" opacity="0.44"/>
  <rect x="0" y="0" width="1200" height="4" fill="#ff6b35"/>
  <rect x="118" y="96" width="6" height="6" fill="#fddfad"/><rect x="112" y="102" width="6" height="6" fill="#fddfad"/><rect x="118" y="102" width="6" height="6" fill="#fddfad"/><rect x="124" y="102" width="6" height="6" fill="#fddfad"/><rect x="118" y="108" width="6" height="6" fill="#fddfad"/><rect x="88" y="114" width="6" height="6" fill="#fca311"/><rect x="94" y="114" width="6" height="6" fill="#fca311"/><rect x="142" y="114" width="6" height="6" fill="#fca311"/><rect x="148" y="114" width="6" height="6" fill="#fca311"/><rect x="88" y="120" width="6" height="6" fill="#fca311"/><rect x="94" y="120" width="6" height="6" fill="#fca311"/><rect x="142" y="120" width="6" height="6" fill="#fca311"/><rect x="148" y="120" width="6" height="6" fill="#fca311"/><rect x="94" y="126" width="6" height="6" fill="#ff6b35"/><rect x="100" y="126" width="6" height="6" fill="#ff6b35"/><rect x="136" y="126" width="6" height="6" fill="#ff6b35"/><rect x="142" y="126" width="6" height="6" fill="#ff6b35"/><rect x="94" y="132" width="6" height="6" fill="#ff6b35"/><rect x="100" y="132" width="6" height="6" fill="#ff6b35"/><rect x="136" y="132" width="6" height="6" fill="#ff6b35"/><rect x="142" y="132" width="6" height="6" fill="#ff6b35"/><rect x="100" y="138" width="6" height="6" fill="#ff6b35"/><rect x="106" y="138" width="6" height="6" fill="#ff6b35"/><rect x="130" y="138" width="6" height="6" fill="#ff6b35"/><rect x="136" y="138" width="6" height="6" fill="#ff6b35"/><rect x="100" y="144" width="6" height="6" fill="#852d0f"/><rect x="106" y="144" width="6" height="6" fill="#852d0f"/><rect x="130" y="144" width="6" height="6" fill="#852d0f"/><rect x="136" y="144" width="6" height="6" fill="#852d0f"/><rect x="106" y="150" width="6" height="6" fill="#852d0f"/><rect x="112" y="150" width="6" height="6" fill="#852d0f"/><rect x="124" y="150" width="6" height="6" fill="#852d0f"/><rect x="130" y="150" width="6" height="6" fill="#852d0f"/><rect x="112" y="156" width="6" height="6" fill="#852d0f"/><rect x="118" y="156" width="6" height="6" fill="#852d0f"/><rect x="124" y="156" width="6" height="6" fill="#852d0f"/>
  <text x="172" y="131" font-family="JetBrainsMono Nerd Font, JetBrains Mono, monospace" font-size="24" fill="#71717a">vibe-forge.net</text>
  <rect x="88" y="214" width="13" height="13" fill="#fddfad"/><rect x="101" y="214" width="13" height="13" fill="#fddfad"/><rect x="140" y="214" width="13" height="13" fill="#fddfad"/><rect x="153" y="214" width="13" height="13" fill="#fddfad"/><rect x="88" y="227" width="13" height="13" fill="#fddfad"/><rect x="101" y="227" width="13" height="13" fill="#fddfad"/><rect x="140" y="227" width="13" height="13" fill="#fddfad"/><rect x="153" y="227" width="13" height="13" fill="#fddfad"/><rect x="88" y="240" width="13" height="13" fill="#fca311"/><rect x="101" y="240" width="13" height="13" fill="#fca311"/><rect x="140" y="240" width="13" height="13" fill="#fca311"/><rect x="153" y="240" width="13" height="13" fill="#fca311"/><rect x="88" y="253" width="13" height="13" fill="#ff6b35"/><rect x="101" y="253" width="13" height="13" fill="#ff6b35"/><rect x="140" y="253" width="13" height="13" fill="#ff6b35"/><rect x="153" y="253" width="13" height="13" fill="#ff6b35"/><rect x="101" y="266" width="13" height="13" fill="#ff6b35"/><rect x="114" y="266" width="13" height="13" fill="#ff6b35"/><rect x="127" y="266" width="13" height="13" fill="#ff6b35"/><rect x="140" y="266" width="13" height="13" fill="#ff6b35"/><rect x="101" y="279" width="13" height="13" fill="#852d0f"/><rect x="114" y="279" width="13" height="13" fill="#852d0f"/><rect x="127" y="279" width="13" height="13" fill="#852d0f"/><rect x="140" y="279" width="13" height="13" fill="#852d0f"/><rect x="114" y="292" width="13" height="13" fill="#852d0f"/><rect x="127" y="292" width="13" height="13" fill="#852d0f"/><rect x="179" y="214" width="13" height="13" fill="#fddfad"/><rect x="192" y="214" width="13" height="13" fill="#fddfad"/><rect x="205" y="214" width="13" height="13" fill="#fddfad"/><rect x="218" y="214" width="13" height="13" fill="#fddfad"/><rect x="231" y="214" width="13" height="13" fill="#fddfad"/><rect x="244" y="214" width="13" height="13" fill="#fddfad"/><rect x="205" y="227" width="13" height="13" fill="#fddfad"/><rect x="218" y="227" width="13" height="13" fill="#fddfad"/><rect x="205" y="240" width="13" height="13" fill="#fca311"/><rect x="218" y="240" width="13" height="13" fill="#fca311"/><rect x="205" y="253" width="13" height="13" fill="#ff6b35"/><rect x="218" y="253" width="13" height="13" fill="#ff6b35"/><rect x="205" y="266" width="13" height="13" fill="#ff6b35"/><rect x="218" y="266" width="13" height="13" fill="#ff6b35"/><rect x="205" y="279" width="13" height="13" fill="#852d0f"/><rect x="218" y="279" width="13" height="13" fill="#852d0f"/><rect x="179" y="292" width="13" height="13" fill="#852d0f"/><rect x="192" y="292" width="13" height="13" fill="#852d0f"/><rect x="205" y="292" width="13" height="13" fill="#852d0f"/><rect x="218" y="292" width="13" height="13" fill="#852d0f"/><rect x="231" y="292" width="13" height="13" fill="#852d0f"/><rect x="244" y="292" width="13" height="13" fill="#852d0f"/><rect x="270" y="214" width="13" height="13" fill="#fddfad"/><rect x="283" y="214" width="13" height="13" fill="#fddfad"/><rect x="296" y="214" width="13" height="13" fill="#fddfad"/><rect x="309" y="214" width="13" height="13" fill="#fddfad"/><rect x="322" y="214" width="13" height="13" fill="#fddfad"/><rect x="270" y="227" width="13" height="13" fill="#fddfad"/><rect x="283" y="227" width="13" height="13" fill="#fddfad"/><rect x="322" y="227" width="13" height="13" fill="#fddfad"/><rect x="335" y="227" width="13" height="13" fill="#fddfad"/><rect x="270" y="240" width="13" height="13" fill="#fca311"/><rect x="283" y="240" width="13" height="13" fill="#fca311"/><rect x="322" y="240" width="13" height="13" fill="#fca311"/><rect x="335" y="240" width="13" height="13" fill="#fca311"/><rect x="270" y="253" width="13" height="13" fill="#ff6b35"/><rect x="283" y="253" width="13" height="13" fill="#ff6b35"/><rect x="296" y="253" width="13" height="13" fill="#ff6b35"/><rect x="309" y="253" width="13" height="13" fill="#ff6b35"/><rect x="322" y="253" width="13" height="13" fill="#ff6b35"/><rect x="270" y="266" width="13" height="13" fill="#ff6b35"/><rect x="283" y="266" width="13" height="13" fill="#ff6b35"/><rect x="322" y="266" width="13" height="13" fill="#ff6b35"/><rect x="335" y="266" width="13" height="13" fill="#ff6b35"/><rect x="270" y="279" width="13" height="13" fill="#852d0f"/><rect x="283" y="279" width="13" height="13" fill="#852d0f"/><rect x="322" y="279" width="13" height="13" fill="#852d0f"/><rect x="335" y="279" width="13" height="13" fill="#852d0f"/><rect x="270" y="292" width="13" height="13" fill="#852d0f"/><rect x="283" y="292" width="13" height="13" fill="#852d0f"/><rect x="296" y="292" width="13" height="13" fill="#852d0f"/><rect x="309" y="292" width="13" height="13" fill="#852d0f"/><rect x="322" y="292" width="13" height="13" fill="#852d0f"/><rect x="361" y="214" width="13" height="13" fill="#fddfad"/><rect x="374" y="214" width="13" height="13" fill="#fddfad"/><rect x="387" y="214" width="13" height="13" fill="#fddfad"/><rect x="400" y="214" width="13" height="13" fill="#fddfad"/><rect x="413" y="214" width="13" height="13" fill="#fddfad"/><rect x="426" y="214" width="13" height="13" fill="#fddfad"/><rect x="361" y="227" width="13" height="13" fill="#fddfad"/><rect x="374" y="227" width="13" height="13" fill="#fddfad"/><rect x="361" y="240" width="13" height="13" fill="#fca311"/><rect x="374" y="240" width="13" height="13" fill="#fca311"/><rect x="361" y="253" width="13" height="13" fill="#ff6b35"/><rect x="374" y="253" width="13" height="13" fill="#ff6b35"/><rect x="387" y="253" width="13" height="13" fill="#ff6b35"/><rect x="400" y="253" width="13" height="13" fill="#ff6b35"/><rect x="413" y="253" width="13" height="13" fill="#ff6b35"/><rect x="361" y="266" width="13" height="13" fill="#ff6b35"/><rect x="374" y="266" width="13" height="13" fill="#ff6b35"/><rect x="361" y="279" width="13" height="13" fill="#852d0f"/><rect x="374" y="279" width="13" height="13" fill="#852d0f"/><rect x="361" y="292" width="13" height="13" fill="#852d0f"/><rect x="374" y="292" width="13" height="13" fill="#852d0f"/><rect x="387" y="292" width="13" height="13" fill="#852d0f"/><rect x="400" y="292" width="13" height="13" fill="#852d0f"/><rect x="413" y="292" width="13" height="13" fill="#852d0f"/><rect x="426" y="292" width="13" height="13" fill="#852d0f"/><rect x="452" y="214" width="13" height="13" fill="#fddfad"/><rect x="465" y="214" width="13" height="13" fill="#fddfad"/><rect x="478" y="214" width="13" height="13" fill="#fddfad"/><rect x="491" y="214" width="13" height="13" fill="#fddfad"/><rect x="504" y="214" width="13" height="13" fill="#fddfad"/><rect x="517" y="214" width="13" height="13" fill="#fddfad"/><rect x="452" y="227" width="13" height="13" fill="#fddfad"/><rect x="465" y="227" width="13" height="13" fill="#fddfad"/><rect x="452" y="240" width="13" height="13" fill="#fca311"/><rect x="465" y="240" width="13" height="13" fill="#fca311"/><rect x="452" y="253" width="13" height="13" fill="#ff6b35"/><rect x="465" y="253" width="13" height="13" fill="#ff6b35"/><rect x="478" y="253" width="13" height="13" fill="#ff6b35"/><rect x="491" y="253" width="13" height="13" fill="#ff6b35"/><rect x="504" y="253" width="13" height="13" fill="#ff6b35"/><rect x="452" y="266" width="13" height="13" fill="#ff6b35"/><rect x="465" y="266" width="13" height="13" fill="#ff6b35"/><rect x="452" y="279" width="13" height="13" fill="#852d0f"/><rect x="465" y="279" width="13" height="13" fill="#852d0f"/><rect x="452" y="292" width="13" height="13" fill="#852d0f"/><rect x="465" y="292" width="13" height="13" fill="#852d0f"/><rect x="556" y="214" width="13" height="13" fill="#fddfad"/><rect x="569" y="214" width="13" height="13" fill="#fddfad"/><rect x="582" y="214" width="13" height="13" fill="#fddfad"/><rect x="595" y="214" width="13" height="13" fill="#fddfad"/><rect x="543" y="227" width="13" height="13" fill="#fddfad"/><rect x="556" y="227" width="13" height="13" fill="#fddfad"/><rect x="595" y="227" width="13" height="13" fill="#fddfad"/><rect x="608" y="227" width="13" height="13" fill="#fddfad"/><rect x="543" y="240" width="13" height="13" fill="#fca311"/><rect x="556" y="240" width="13" height="13" fill="#fca311"/><rect x="595" y="240" width="13" height="13" fill="#fca311"/><rect x="608" y="240" width="13" height="13" fill="#fca311"/><rect x="543" y="253" width="13" height="13" fill="#ff6b35"/><rect x="556" y="253" width="13" height="13" fill="#ff6b35"/><rect x="595" y="253" width="13" height="13" fill="#ff6b35"/><rect x="608" y="253" width="13" height="13" fill="#ff6b35"/><rect x="543" y="266" width="13" height="13" fill="#ff6b35"/><rect x="556" y="266" width="13" height="13" fill="#ff6b35"/><rect x="595" y="266" width="13" height="13" fill="#ff6b35"/><rect x="608" y="266" width="13" height="13" fill="#ff6b35"/><rect x="543" y="279" width="13" height="13" fill="#852d0f"/><rect x="556" y="279" width="13" height="13" fill="#852d0f"/><rect x="595" y="279" width="13" height="13" fill="#852d0f"/><rect x="608" y="279" width="13" height="13" fill="#852d0f"/><rect x="556" y="292" width="13" height="13" fill="#852d0f"/><rect x="569" y="292" width="13" height="13" fill="#852d0f"/><rect x="582" y="292" width="13" height="13" fill="#852d0f"/><rect x="595" y="292" width="13" height="13" fill="#852d0f"/><rect x="634" y="214" width="13" height="13" fill="#fddfad"/><rect x="647" y="214" width="13" height="13" fill="#fddfad"/><rect x="660" y="214" width="13" height="13" fill="#fddfad"/><rect x="673" y="214" width="13" height="13" fill="#fddfad"/><rect x="686" y="214" width="13" height="13" fill="#fddfad"/><rect x="634" y="227" width="13" height="13" fill="#fddfad"/><rect x="647" y="227" width="13" height="13" fill="#fddfad"/><rect x="686" y="227" width="13" height="13" fill="#fddfad"/><rect x="699" y="227" width="13" height="13" fill="#fddfad"/><rect x="634" y="240" width="13" height="13" fill="#fca311"/><rect x="647" y="240" width="13" height="13" fill="#fca311"/><rect x="686" y="240" width="13" height="13" fill="#fca311"/><rect x="699" y="240" width="13" height="13" fill="#fca311"/><rect x="634" y="253" width="13" height="13" fill="#ff6b35"/><rect x="647" y="253" width="13" height="13" fill="#ff6b35"/><rect x="660" y="253" width="13" height="13" fill="#ff6b35"/><rect x="673" y="253" width="13" height="13" fill="#ff6b35"/><rect x="686" y="253" width="13" height="13" fill="#ff6b35"/><rect x="634" y="266" width="13" height="13" fill="#ff6b35"/><rect x="647" y="266" width="13" height="13" fill="#ff6b35"/><rect x="673" y="266" width="13" height="13" fill="#ff6b35"/><rect x="686" y="266" width="13" height="13" fill="#ff6b35"/><rect x="634" y="279" width="13" height="13" fill="#852d0f"/><rect x="647" y="279" width="13" height="13" fill="#852d0f"/><rect x="686" y="279" width="13" height="13" fill="#852d0f"/><rect x="699" y="279" width="13" height="13" fill="#852d0f"/><rect x="634" y="292" width="13" height="13" fill="#852d0f"/><rect x="647" y="292" width="13" height="13" fill="#852d0f"/><rect x="686" y="292" width="13" height="13" fill="#852d0f"/><rect x="699" y="292" width="13" height="13" fill="#852d0f"/><rect x="738" y="214" width="13" height="13" fill="#fddfad"/><rect x="751" y="214" width="13" height="13" fill="#fddfad"/><rect x="764" y="214" width="13" height="13" fill="#fddfad"/><rect x="777" y="214" width="13" height="13" fill="#fddfad"/><rect x="725" y="227" width="13" height="13" fill="#fddfad"/><rect x="738" y="227" width="13" height="13" fill="#fddfad"/><rect x="777" y="227" width="13" height="13" fill="#fddfad"/><rect x="790" y="227" width="13" height="13" fill="#fddfad"/><rect x="725" y="240" width="13" height="13" fill="#fca311"/><rect x="738" y="240" width="13" height="13" fill="#fca311"/><rect x="725" y="253" width="13" height="13" fill="#ff6b35"/><rect x="738" y="253" width="13" height="13" fill="#ff6b35"/><rect x="764" y="253" width="13" height="13" fill="#ff6b35"/><rect x="777" y="253" width="13" height="13" fill="#ff6b35"/><rect x="790" y="253" width="13" height="13" fill="#ff6b35"/><rect x="725" y="266" width="13" height="13" fill="#ff6b35"/><rect x="738" y="266" width="13" height="13" fill="#ff6b35"/><rect x="777" y="266" width="13" height="13" fill="#ff6b35"/><rect x="790" y="266" width="13" height="13" fill="#ff6b35"/><rect x="725" y="279" width="13" height="13" fill="#852d0f"/><rect x="738" y="279" width="13" height="13" fill="#852d0f"/><rect x="777" y="279" width="13" height="13" fill="#852d0f"/><rect x="790" y="279" width="13" height="13" fill="#852d0f"/><rect x="738" y="292" width="13" height="13" fill="#852d0f"/><rect x="751" y="292" width="13" height="13" fill="#852d0f"/><rect x="764" y="292" width="13" height="13" fill="#852d0f"/><rect x="777" y="292" width="13" height="13" fill="#852d0f"/><rect x="790" y="292" width="13" height="13" fill="#852d0f"/><rect x="816" y="214" width="13" height="13" fill="#fddfad"/><rect x="829" y="214" width="13" height="13" fill="#fddfad"/><rect x="842" y="214" width="13" height="13" fill="#fddfad"/><rect x="855" y="214" width="13" height="13" fill="#fddfad"/><rect x="868" y="214" width="13" height="13" fill="#fddfad"/><rect x="881" y="214" width="13" height="13" fill="#fddfad"/><rect x="816" y="227" width="13" height="13" fill="#fddfad"/><rect x="829" y="227" width="13" height="13" fill="#fddfad"/><rect x="816" y="240" width="13" height="13" fill="#fca311"/><rect x="829" y="240" width="13" height="13" fill="#fca311"/><rect x="816" y="253" width="13" height="13" fill="#ff6b35"/><rect x="829" y="253" width="13" height="13" fill="#ff6b35"/><rect x="842" y="253" width="13" height="13" fill="#ff6b35"/><rect x="855" y="253" width="13" height="13" fill="#ff6b35"/><rect x="868" y="253" width="13" height="13" fill="#ff6b35"/><rect x="816" y="266" width="13" height="13" fill="#ff6b35"/><rect x="829" y="266" width="13" height="13" fill="#ff6b35"/><rect x="816" y="279" width="13" height="13" fill="#852d0f"/><rect x="829" y="279" width="13" height="13" fill="#852d0f"/><rect x="816" y="292" width="13" height="13" fill="#852d0f"/><rect x="829" y="292" width="13" height="13" fill="#852d0f"/><rect x="842" y="292" width="13" height="13" fill="#852d0f"/><rect x="855" y="292" width="13" height="13" fill="#852d0f"/><rect x="868" y="292" width="13" height="13" fill="#852d0f"/><rect x="881" y="292" width="13" height="13" fill="#852d0f"/>
  <text x="88" y="383" font-family="JetBrainsMono Nerd Font, JetBrains Mono, monospace" font-size="36" font-weight="600" fill="#ffffff">Your coding agents, forged into one desk.</text>
  <text x="88" y="433" font-family="JetBrainsMono Nerd Font, JetBrains Mono, monospace" font-size="23" fill="#71717a">Claude Code, Codex, Grok and every CLI you use, as a team. For Omarchy.</text>
  <rect x="88" y="552" width="14" height="14" fill="#ff6b35"/>
  <text x="114" y="565" font-family="JetBrainsMono Nerd Font, JetBrains Mono, monospace" font-size="20" fill="#71717a">open source · no accounts · no keys · no telemetry</text>
</svg>
